{"title":"The Dark Knight (2011) DvdRip Xvid {1337x}-X","uid":6602618,"size":736350208,"categoryP":"video","categoryS":"movies","magnet":"?xt=urn:btih:18c587c7bb9e2b6daf5d86f9809ef527412dd97e&amp;dn=The+Dark+Knight+%282011%29+DvdRip+Xvid+%7B1337x%7D-X&amp;tr=udp%3A%2F%2Ftracker.openbittorrent.com%3A80&amp;tr=udp%3A%2F%2Fopen.demonii.com%3A1337&amp;tr=udp%3A%2F%2Ftracker.coppersurfer.tk%3A6969&amp;tr=udp%3A%2F%2Fexodus.desync.com%3A6969","seeders":0,"leechers":1,"uploader":".BONE.","files":1,"time":1313271533,"description":"Video\nID : 0\nFormat : MPEG-4 Visual\nFormat profile : Advanced Simple@L5\nFormat settings, BVOP : Yes\nFormat settings, QPel : No\nFormat settings, GMC : No warppoints\nFormat settings, Matrix : Default (H.263)\nMuxing mode : Packed bitstream\nCodec ID : XVID\nCodec ID/Hint : XviD\nDuration : 1h 21mn\nBit rate : 1 090 Kbps\nWidth : 720 pixels\nHeight : 400 pixels\nDisplay aspect ratio : 16:9\nFrame rate : 25.000 fps\nColor space : YUV\nChroma subsampling : 4:2:0\nBit depth : 8 bits\nScan type : Progressive\nBits/(Pixel*Frame) : 0.151\nStream size : 634 MiB (90%)\nWriting library : XviD 57\n\nAudio\nID : 1\nFormat : MPEG Audio\nFormat version : Version 1\nFormat profile : Layer 3\nMode : Joint stereo\nMode extension : MS Stereo\nCodec ID : 55\nCodec ID/Hint : MP3\nDuration : 1h 21mn\nBit rate mode : Variable\nBit rate : 105 Kbps\nNominal bit rate : 112 Kbps\nChannel(s) : 2 channels\nSampling rate : 48.0 KHz\nStream size : 60.9 MiB (9%)\nAlignment : Aligned on interleaves\nInterleave, duration : 24 ms (0.60 video frame)\nInterleave, preload duration : 531 ms\nWriting library : LAME3.97\nEncoding settings : -m j -V 4 -q 2 -lowpass 16 --abr 112\n\n &lt;a href=&quot;\nhttp://leetleech.org/images/78461796105223223847.jpg&quot; rel=&quot;nofollow&quot; target=&quot;_NEW&quot;&gt;\nhttp://leetleech.org/images/78461796105223223847.jpg&lt;/a&gt;","torrent":{"xt":"urn:btih:18c587c7bb9e2b6daf5d86f9809ef527412dd97e","amp;dn":"The+Dark+Knight+%282011%29+DvdRip+Xvid+%7B1337x%7D-X","amp;tr":["udp%3A%2F%2Ftracker.openbittorrent.com%3A80","udp%3A%2F%2Fopen.demonii.com%3A1337","udp%3A%2F%2Ftracker.coppersurfer.tk%3A6969","udp%3A%2F%2Fexodus.desync.com%3A6969"],"infoHash":"18c587c7bb9e2b6daf5d86f9809ef527412dd97e","infoHashBuffer":{"type":"Buffer","data":[24,197,135,199,187,158,43,109,175,93,134,249,128,158,245,39,65,45,217,126]},"announce":[],"urlList":[]}}